<?xml version="1.0" encoding="UTF-8"?>
<svg fill="none" viewBox="0 0 48 64" xmlns="http://www.w3.org/2000/svg">
<g filter="url(#n)">
<path d="m20.52 3.5c-3.0443 1.5532-2.1667 3.5 0.5 4.5l2.98 1.6e-4 2.98-1e-4c2.6667-1 3.5443-2.9468 0.5-4.5-0.8996-0.45899-2-0.49987-3.48-0.49993-1.52 6e-5 -2.5 3e-5 -3.48 0.49987z" fill="#682B2B"/>
<path d="m11 37v22.8c0 0.1105 0.0895 0.2 0.2 0.2l13.3 1e-4h12.3c0.1104 0 0.2-0.0896 0.2-0.2v-22.8c0-2.4281-0.0779-4.6469-0.2-6.5h-12.3-13.3c-0.1221 1.8531-0.2 4.0719-0.2 6.5z" fill="url(#m)"/>
<path d="m14.52 25c5.4381-0.6764 6.5-2.4999 5.98-4.5-0.5609-2.1572-1.5-6.4999-1-8 0.3154-0.9463 0.8378-2.4894 1.1804-3.4998h6.6391c0.3427 1.0104 0.8651 2.5536 1.1805 3.4999 0.5 1.5-0.4391 5.8427-1 8-0.52 2 0.5419 3.8235 5.98 4.5 2.5183 0.3132 3.1152 2.3924 3.32 5.5h-12.3-13.3c0.2048-3.1076 0.8017-5.1868 3.32-5.5001z" clip-rule="evenodd" fill="url(#i)" fill-rule="evenodd"/>
<path d="m14.52 25c5.4381-0.6764 6.5-2.4999 5.98-4.5-0.5609-2.1572-1.5-6.4999-1-8 0.3154-0.9463 0.8378-2.4894 1.1804-3.4998h6.6391c0.3427 1.0104 0.8651 2.5536 1.1805 3.4999 0.5 1.5-0.4391 5.8427-1 8-0.52 2 0.5419 3.8235 5.98 4.5 2.5183 0.3132 3.1152 2.3924 3.32 5.5h-12.3-13.3c0.2048-3.1076 0.8017-5.1868 3.32-5.5001z" clip-rule="evenodd" fill="url(#h)" fill-rule="evenodd"/>
<path d="m14.52 25c5.4381-0.6764 6.5-2.4999 5.98-4.5-0.5609-2.1572-1.5-6.4999-1-8 0.3154-0.9463 0.8378-2.4894 1.1804-3.4998h6.6391c0.3427 1.0104 0.8651 2.5536 1.1805 3.4999 0.5 1.5-0.4391 5.8427-1 8-0.52 2 0.5419 3.8235 5.98 4.5 2.5183 0.3132 3.1152 2.3924 3.32 5.5h-12.3-13.3c0.2048-3.1076 0.8017-5.1868 3.32-5.5001z" clip-rule="evenodd" fill="url(#g)" fill-rule="evenodd"/>
<path d="m24 8.0002-2.98-1.6e-4s-0.139 0.40886-0.3396 1.0002h6.6391c-0.2005-0.59127-0.3395-1.0001-0.3395-1.0001l-2.98 1e-4z" fill="#D5C1C1"/>
</g>
<rect x="12" y="30" width="24" height="29" rx="1" fill="url(#f)"/>
<path d="m17.804 34.9h0.975v0.057h-0.165v1.296c0 0.27-0.061 0.467-0.183 0.591-0.122 0.122-0.305 0.183-0.549 0.183-0.162 0-0.291-0.031-0.387-0.093-0.094-0.062-0.141-0.149-0.141-0.261 0-0.086 0.024-0.153 0.072-0.201 0.048-0.05 0.113-0.075 0.195-0.075 0.084 0 0.146 0.021 0.186 0.063 0.042 0.042 0.063 0.093 0.063 0.153 0 0.058-0.011 0.117-0.033 0.177h-0.117c-0.018 0.03-0.027 0.059-0.027 0.087 0 0.026 0.013 0.049 0.039 0.069 0.028 0.018 0.064 0.027 0.108 0.027 0.08 0 0.131-0.031 0.153-0.093 0.024-0.064 0.036-0.201 0.036-0.411v-1.512h-0.225v-0.057zm1.6956 1.395h0.087v-0.231c0-0.19-0.011-0.317-0.033-0.381-0.02-0.066-0.06-0.099-0.12-0.099-0.036 0-0.069 0.01-0.099 0.03-0.028 0.018-0.042 0.044-0.042 0.078 0 0.032 6e-3 0.065 0.018 0.099h0.075c0.016 0.042 0.024 0.093 0.024 0.153 0 0.058-0.025 0.109-0.075 0.153-0.05 0.042-0.113 0.063-0.189 0.063-0.172 0-0.258-0.083-0.258-0.249 0-0.246 0.209-0.369 0.627-0.369 0.238 0 0.402 0.041 0.492 0.123 0.092 0.08 0.138 0.228 0.138 0.444v0.609c0 0.104 0.029 0.156 0.087 0.156 0.068 0 0.108-0.103 0.12-0.309l0.045 3e-3c-8e-3 0.176-0.041 0.297-0.099 0.363s-0.153 0.099-0.285 0.099c-0.24 0-0.378-0.074-0.414-0.222-0.026 0.076-0.065 0.132-0.117 0.168s-0.128 0.054-0.228 0.054c-0.296 0-0.444-0.121-0.444-0.363 0-0.142 0.056-0.239 0.168-0.291 0.114-0.054 0.288-0.081 0.522-0.081zm-0.12 0.369c0 0.104 5e-3 0.171 0.015 0.201 0.012 0.03 0.033 0.045 0.063 0.045 0.032 0 0.061-0.025 0.087-0.075 0.028-0.052 0.042-0.123 0.042-0.213v-0.279h-0.021c-0.124 0-0.186 0.091-0.186 0.273v0.048zm2.0275 0.336v-0.054h0.138l-0.339-0.696-0.057 0.015v0.681h0.138v0.054h-0.861v-0.054h0.165v-2.142h-0.177v-0.054h0.735v1.455l0.048-0.018 0.675-0.561h-0.282v-0.054h0.591v0.054h-0.21l-0.357 0.303 0.519 1.017h0.108v0.054h-0.834zm1.5921 0.03c-0.258 0-0.452-0.066-0.582-0.198-0.128-0.134-0.192-0.319-0.192-0.555 0-0.238 0.072-0.42 0.216-0.546 0.146-0.126 0.331-0.189 0.555-0.189 0.454 0 0.672 0.228 0.654 0.684h-0.846v0.117c0 0.196 0.025 0.344 0.075 0.444s0.137 0.15 0.261 0.15c0.232 0 0.384-0.124 0.456-0.372l0.054 9e-3c-0.038 0.144-0.107 0.256-0.207 0.336-0.098 0.08-0.246 0.12-0.444 0.12zm-0.192-0.864h0.309v-0.147c0-0.162-0.01-0.272-0.03-0.33-0.018-0.06-0.056-0.09-0.114-0.09-0.056 0-0.098 0.032-0.126 0.096-0.026 0.062-0.039 0.17-0.039 0.324v0.147zm0.9829-1.266h1.08v0.066h-0.318v1.968h0.108c0.17 0 0.305-0.052 0.405-0.156 0.102-0.104 0.205-0.264 0.309-0.48h0.063l-0.057 0.702h-1.59v-0.066h0.177v-1.968h-0.177v-0.066zm2.7231 1.509v-0.255c0-0.194-0.011-0.335-0.033-0.423-0.02-0.09-0.068-0.135-0.144-0.135-0.044 0-0.08 0.013-0.108 0.039-0.026 0.024-0.045 0.065-0.057 0.123-0.018 0.09-0.027 0.227-0.027 0.411v0.234c0 0.218 6e-3 0.349 0.018 0.393 0.014 0.044 0.028 0.08 0.042 0.108 0.022 0.048 0.065 0.072 0.129 0.072 0.078 0 0.129-0.045 0.153-0.135 0.018-0.064 0.027-0.208 0.027-0.432zm-0.186 0.621c-0.25 0-0.439-0.064-0.567-0.192s-0.192-0.311-0.192-0.549c0-0.24 0.068-0.424 0.204-0.552 0.138-0.13 0.331-0.195 0.579-0.195s0.433 0.06 0.555 0.18c0.122 0.118 0.183 0.299 0.183 0.543 0 0.51-0.254 0.765-0.762 0.765zm2.6009-0.03h-0.684l-0.033-0.219c-0.032 0.08-0.08 0.142-0.144 0.186-0.062 0.042-0.155 0.063-0.279 0.063-0.31 0-0.465-0.167-0.465-0.501v-0.903h-0.168v-0.054h0.726v1.029c0 0.12 8e-3 0.199 0.024 0.237 0.018 0.038 0.052 0.057 0.102 0.057 0.052 0 0.098-0.031 0.138-0.093s0.06-0.148 0.06-0.258v-0.918h-0.138v-0.054h0.696v1.374h0.165v0.054zm0.6704-0.621c0 0.21 0.011 0.35 0.033 0.42 0.022 0.068 0.062 0.102 0.12 0.102 0.06 0 0.111-0.026 0.153-0.078 0.044-0.052 0.066-0.129 0.066-0.231v-0.654c0-0.086-0.017-0.159-0.051-0.219s-0.084-0.09-0.15-0.09-0.111 0.044-0.135 0.132-0.036 0.242-0.036 0.462v0.156zm0.411 0.621-0.033-0.21c-0.068 0.16-0.206 0.24-0.414 0.24-0.172 0-0.306-0.062-0.402-0.186-0.094-0.124-0.141-0.309-0.141-0.555 0-0.498 0.198-0.747 0.594-0.747 0.176 0 0.292 0.049 0.348 0.147v-0.885h-0.183v-0.054h0.75v2.196h0.147v0.054h-0.666z" fill="url(#e)"/>
<path d="m20.438 57.02c-0.172 0-0.3013-0.044-0.388-0.132-0.0853-0.0894-0.128-0.2127-0.128-0.37 0-0.1587 0.048-0.28 0.144-0.364 0.0973-0.084 0.2207-0.126 0.37-0.126 0.3027 0 0.448 0.152 0.436 0.456h-0.564v0.078c0 0.1306 0.0167 0.2293 0.05 0.296 0.0333 0.0666 0.0913 0.1 0.174 0.1 0.1547 0 0.256-0.0827 0.304-0.248l0.036 6e-3c-0.0253 0.096-0.0713 0.1706-0.138 0.224-0.0653 0.0533-0.164 0.08-0.296 0.08zm-0.128-0.576h0.206v-0.098c0-0.108-0.0067-0.1814-0.02-0.22-0.012-0.04-0.0373-0.06-0.076-0.06-0.0373 0-0.0653 0.0213-0.084 0.064-0.0173 0.0413-0.026 0.1133-0.026 0.216v0.098zm0.6597 0.576v-0.358h0.024c0.0347 0.116 0.0813 0.1973 0.14 0.244 0.0587 0.0466 0.132 0.07 0.22 0.07 0.136 0 0.204-0.0434 0.204-0.13 0-0.0374-0.0167-0.0654-0.05-0.084-0.052-0.0294-0.1187-0.052-0.2-0.068-0.0907-0.024-0.1667-0.056-0.228-0.096-0.0733-0.048-0.11-0.124-0.11-0.228s0.032-0.1867 0.096-0.248c0.064-0.0627 0.1493-0.094 0.256-0.094 0.0653 0 0.1327 0.0153 0.202 0.046 0.0253 0.0106 0.0447 0.016 0.058 0.016s0.0247-0.0047 0.034-0.014c0.0093-0.0094 0.0207-0.0267 0.034-0.052h0.022v0.306h-0.024c-0.068-0.1734-0.1733-0.26-0.316-0.26-0.0627 0-0.1093 0.0113-0.14 0.034-0.0307 0.0213-0.046 0.0486-0.046 0.082 0 0.02 0.0047 0.036 0.014 0.048 0.0093 0.0106 0.0167 0.0186 0.022 0.024 0.0053 0.0053 0.014 0.0113 0.026 0.018 0.012 0.0053 0.022 0.01 0.03 0.014 8e-3 0.0026 0.02 0.0066 0.036 0.012 0.0173 0.0053 0.03 0.0086 0.038 0.01 0.0907 0.0226 0.156 0.0426 0.196 0.06 0.04 0.016 0.078 0.036 0.114 0.06 0.0733 0.0506 0.11 0.1326 0.11 0.246 0 0.112-0.0333 0.1973-0.1 0.256-0.0667 0.0573-0.158 0.086-0.274 0.086-0.0827 0-0.1627-0.0194-0.24-0.058-0.016-0.0107-0.0287-0.016-0.038-0.016-0.0293 0-0.058 0.0246-0.086 0.074h-0.024zm0.9017-0.306v-0.63h-0.11v-0.036h0.11v-0.258l0.372-0.092v0.35h0.26v0.036h-0.26v0.674c0 0.0626 6e-3 0.1086 0.018 0.138 0.0133 0.0293 0.04 0.044 0.08 0.044s0.0746-0.02 0.104-0.06c0.0306-0.04 0.0506-0.0947 0.06-0.164l0.034 4e-3c-0.0107 0.092-0.04 0.1653-0.088 0.22-0.048 0.0533-0.1274 0.08-0.238 0.08-0.1107 0-0.1954-0.022-0.254-0.066-0.0587-0.044-0.088-0.124-0.088-0.24zm0.9291 0.306c-0.0574 0-0.1007-0.0167-0.13-0.05-0.028-0.0347-0.042-0.076-0.042-0.124 0-0.0494 0.0146-0.0907 0.044-0.124 0.0306-0.0334 0.0733-0.05 0.128-0.05 0.0546 0 0.098 0.014 0.13 0.042s0.048 0.07 0.048 0.126-0.0154 0.1-0.046 0.132c-0.0294 0.032-0.0734 0.048-0.132 0.048zm0.6966-1.136c0-0.0894 0.0387-0.1627 0.116-0.22 0.0774-0.0574 0.1934-0.086 0.348-0.086 0.1547 0 0.2734 0.0286 0.356 0.086 0.084 0.0573 0.126 0.1433 0.126 0.258 0 0.0373-0.0033 0.0713-0.01 0.102-0.0066 0.0293-0.022 0.0606-0.046 0.094-0.0226 0.032-0.0453 0.0606-0.068 0.086-0.0213 0.0253-0.0586 0.0586-0.112 0.1-0.08 0.064-0.164 0.128-0.252 0.192-0.088 0.0626-0.1393 0.0993-0.154 0.11l-0.122 0.088h0.48c0.092 0 0.1574-0.02 0.196-0.06 0.0387-0.04 0.066-0.1027 0.082-0.188h0.034l-0.02 0.554h-0.94v-0.232l0.202-0.186c0.1374-0.1254 0.2347-0.2367 0.292-0.334 0.0574-0.0987 0.086-0.2067 0.086-0.324 0-0.1187-0.0126-0.1994-0.038-0.242-0.0253-0.044-0.068-0.066-0.128-0.066s-0.102 0.0153-0.126 0.046c-0.024 0.0306-0.036 0.06-0.036 0.088s4e-3 0.0526 0.012 0.074h0.06c0.0107 0.028 0.016 0.062 0.016 0.102 0 0.0386-0.0166 0.0726-0.05 0.102-0.0333 0.028-0.0773 0.042-0.132 0.042-0.0546 0-0.0973-0.0174-0.128-0.052-0.0293-0.036-0.044-0.0807-0.044-0.134zm1.6856 1.136c-0.1934 0-0.3407-0.0654-0.442-0.196-0.1-0.1307-0.15-0.3134-0.15-0.548 0-0.2347 0.054-0.4094 0.162-0.524 0.108-0.116 0.2553-0.174 0.442-0.174 0.188 0 0.3353 0.0573 0.442 0.172 0.108 0.1146 0.162 0.2973 0.162 0.548 0 0.2506-0.054 0.434-0.162 0.55-0.108 0.1146-0.2594 0.172-0.454 0.172zm-0.182-0.796v0.178c0 0.1293 6e-4 0.2206 2e-3 0.274 0.0026 0.0533 0.01 0.1086 0.022 0.166 0.012 0.0573 0.0313 0.0946 0.058 0.112 0.0266 0.016 0.058 0.024 0.094 0.024s0.0626-2e-3 0.08-6e-3c0.0186-4e-3 0.0346-0.012 0.048-0.024 0.0146-0.0134 0.0266-0.026 0.036-0.038 0.0093-0.0134 0.0166-0.0334 0.022-0.06 0.0066-0.0267 0.012-0.0514 0.016-0.074 4e-3 -0.0227 0.0066-0.056 8e-3 -0.1 0.0026-0.0854 4e-3 -0.1714 4e-3 -0.258v-0.176c0-0.2614-0.01-0.43-0.03-0.506-0.0187-0.0774-0.0734-0.116-0.164-0.116-0.0907 0-0.146 0.0393-0.166 0.118-0.02 0.0786-0.03 0.2406-0.03 0.486zm0.9281-0.34c0-0.0894 0.0386-0.1627 0.116-0.22 0.0773-0.0574 0.1933-0.086 0.348-0.086 0.1546 0 0.2733 0.0286 0.356 0.086 0.084 0.0573 0.126 0.1433 0.126 0.258 0 0.0373-0.0034 0.0713-0.01 0.102-0.0067 0.0293-0.022 0.0606-0.046 0.094-0.0227 0.032-0.0454 0.0606-0.068 0.086-0.0214 0.0253-0.0587 0.0586-0.112 0.1-0.08 0.064-0.164 0.128-0.252 0.192-0.088 0.0626-0.1394 0.0993-0.154 0.11l-0.122 0.088h0.48c0.092 0 0.1573-0.02 0.196-0.06 0.0386-0.04 0.066-0.1027 0.082-0.188h0.034l-0.02 0.554h-0.94v-0.232l0.202-0.186c0.1373-0.1254 0.2346-0.2367 0.292-0.334 0.0573-0.0987 0.086-0.2067 0.086-0.324 0-0.1187-0.0127-0.1994-0.038-0.242-0.0254-0.044-0.068-0.066-0.128-0.066s-0.102 0.0153-0.126 0.046c-0.024 0.0306-0.036 0.06-0.036 0.088s4e-3 0.0526 0.012 0.074h0.06c0.0106 0.028 0.016 0.062 0.016 0.102 0 0.0386-0.0167 0.0726-0.05 0.102-0.0334 0.028-0.0774 0.042-0.132 0.042-0.0547 0-0.0974-0.0174-0.128-0.052-0.0294-0.036-0.044-0.0807-0.044-0.134zm1.1175 0c0-0.088 0.04-0.1607 0.12-0.218 0.08-0.0587 0.1987-0.088 0.356-0.088 0.304 0 0.456 0.106 0.456 0.318 0 0.0866-0.036 0.1586-0.108 0.216-0.0707 0.056-0.1727 0.0953-0.306 0.118v4e-3c0.1653 0.012 0.2873 0.0506 0.366 0.116 0.0787 0.0653 0.118 0.15 0.118 0.254 0 0.128-0.052 0.2293-0.156 0.304-0.1027 0.0746-0.246 0.112-0.43 0.112-0.072 0-0.1393-8e-3 -0.202-0.024-0.0613-0.016-0.1167-0.0474-0.166-0.094-0.048-0.048-0.072-0.1047-0.072-0.17 0-0.0654 0.0153-0.116 0.046-0.152 0.032-0.036 0.0753-0.054 0.13-0.054s0.098 0.0146 0.13 0.044c0.032 0.028 0.048 0.062 0.048 0.102 0 0.0386-0.0053 0.072-0.016 0.1h-0.062c-8e-3 0.0213-0.012 0.0433-0.012 0.066 0 0.0946 0.056 0.142 0.168 0.142 0.0787 0 0.132-0.03 0.16-0.09 0.0293-0.06 0.044-0.1467 0.044-0.26 0-0.1134-0.014-0.1954-0.042-0.246-0.0267-0.052-0.0667-0.0914-0.12-0.118-0.048 0.0106-0.106 0.0193-0.174 0.026l-6e-3 -0.044c0.1173-0.012 0.194-0.04 0.23-0.084 0.0373-0.044 0.056-0.122 0.056-0.234 0-0.1134-0.0113-0.194-0.034-0.242-0.0213-0.0494-0.058-0.074-0.11-0.074s-0.0893 0.016-0.112 0.048c-0.0213 0.0306-0.032 0.06-0.032 0.088s4e-3 0.0526 0.012 0.074h0.058c0.0107 0.028 0.016 0.062 0.016 0.102 0 0.0386-0.0167 0.0726-0.05 0.102-0.0333 0.028-0.0773 0.042-0.132 0.042s-0.0973-0.0174-0.128-0.052c-0.0293-0.036-0.044-0.0807-0.044-0.134z" fill="url(#d)"/>
<path d="m32 36h3" stroke="url(#c)" stroke-linecap="round"/>
<path d="m16 36h-3" stroke="url(#b)" stroke-linecap="round"/>
<path d="m30 40h-12s0.0874 0.9125-0.5 1.5c-0.5875 0.5874-1.5 0.5-1.5 0.5v4s0.9477-0.0523 1.5 0.5 0.5 1.5 0.5 1.5h12s-0.0523-0.9477 0.5-1.5 1.5-0.5 1.5-0.5v-4s-0.9477 0.0523-1.5-0.5-0.5-1.5-0.5-1.5z" stroke="url(#a)"/>
<path d="m22.662 42.957v2.043h-0.42l-1.029-1.941v1.884h0.165v0.057h-0.411v-0.057h0.165v-1.986h-0.165v-0.057h0.828l0.786 1.506v-1.449h-0.165v-0.057h0.411v0.057h-0.165zm1.2095 1.452v-0.255c0-0.194-0.011-0.335-0.033-0.423-0.02-0.09-0.068-0.135-0.144-0.135-0.044 0-0.08 0.013-0.108 0.039-0.026 0.024-0.045 0.065-0.057 0.123-0.018 0.09-0.027 0.227-0.027 0.411v0.234c0 0.218 6e-3 0.349 0.018 0.393 0.014 0.044 0.028 0.08 0.042 0.108 0.022 0.048 0.065 0.072 0.129 0.072 0.078 0 0.129-0.045 0.153-0.135 0.018-0.064 0.027-0.208 0.027-0.432zm-0.186 0.621c-0.25 0-0.439-0.064-0.567-0.192s-0.192-0.311-0.192-0.549c0-0.24 0.068-0.424 0.204-0.552 0.138-0.13 0.331-0.195 0.579-0.195s0.433 0.06 0.555 0.18c0.122 0.118 0.183 0.299 0.183 0.543 0 0.51-0.254 0.765-0.762 0.765zm1.2089 0c-0.086 0-0.151-0.025-0.195-0.075-0.042-0.052-0.063-0.114-0.063-0.186 0-0.074 0.022-0.136 0.066-0.186 0.046-0.05 0.11-0.075 0.192-0.075s0.147 0.021 0.195 0.063 0.072 0.105 0.072 0.189-0.023 0.15-0.069 0.198c-0.044 0.048-0.11 0.072-0.198 0.072zm1.321-2.052-0.33 0.042-6e-3 -0.06 0.678-0.093h0.243v2.076h0.234v0.057h-1.134v-0.057h0.315v-1.965z" fill="url(#l)"/>
<path d="m20.042 51.326-0.11 0.014-2e-3 -0.02 0.226-0.031h0.081v0.692h0.078v0.019h-0.378v-0.019h0.105v-0.655zm0.6238 0.684c-0.0966 0-0.1703-0.0327-0.221-0.098-0.05-0.0654-0.075-0.1567-0.075-0.274 0-0.1174 0.027-0.2047 0.081-0.262 0.054-0.058 0.1277-0.087 0.221-0.087 0.094 0 0.1677 0.0286 0.221 0.086 0.054 0.0573 0.081 0.1486 0.081 0.274 0 0.1253-0.027 0.217-0.081 0.275-0.054 0.0573-0.1296 0.086-0.227 0.086zm-0.091-0.398v0.089c0 0.0646 4e-4 0.1103 1e-3 0.137 0.0014 0.0266 5e-3 0.0543 0.011 0.083 6e-3 0.0286 0.0157 0.0473 0.029 0.056 0.0134 8e-3 0.029 0.012 0.047 0.012s0.0314-1e-3 0.04-3e-3c0.0094-2e-3 0.0174-6e-3 0.024-0.012 0.0074-0.0067 0.0134-0.013 0.018-0.019 0.0047-0.0067 0.0084-0.0167 0.011-0.03 0.0034-0.0134 6e-3 -0.0257 8e-3 -0.037 2e-3 -0.0114 0.0034-0.028 4e-3 -0.05 0.0014-0.0427 2e-3 -0.0857 2e-3 -0.129v-0.088c0-0.1307-5e-3 -0.215-0.015-0.253-0.0093-0.0387-0.0366-0.058-0.082-0.058-0.0453 0-0.073 0.0196-0.083 0.059-0.01 0.0393-0.015 0.1203-0.015 0.243zm0.7551 0.398c-0.0967 0-0.1703-0.0327-0.221-0.098-0.05-0.0654-0.075-0.1567-0.075-0.274 0-0.1174 0.027-0.2047 0.081-0.262 0.054-0.058 0.1277-0.087 0.221-0.087 0.094 0 0.1677 0.0286 0.221 0.086 0.054 0.0573 0.081 0.1486 0.081 0.274 0 0.1253-0.027 0.217-0.081 0.275-0.054 0.0573-0.1297 0.086-0.227 0.086zm-0.091-0.398v0.089c0 0.0646 3e-4 0.1103 1e-3 0.137 0.0013 0.0266 5e-3 0.0543 0.011 0.083 6e-3 0.0286 0.0157 0.0473 0.029 0.056 0.0133 8e-3 0.029 0.012 0.047 0.012s0.0313-1e-3 0.04-3e-3c0.0093-2e-3 0.0173-6e-3 0.024-0.012 0.0073-0.0067 0.0133-0.013 0.018-0.019 0.0047-0.0067 0.0083-0.0167 0.011-0.03 0.0033-0.0134 6e-3 -0.0257 8e-3 -0.037 2e-3 -0.0114 0.0033-0.028 4e-3 -0.05 0.0013-0.0427 2e-3 -0.0857 2e-3 -0.129v-0.088c0-0.1307-5e-3 -0.215-0.015-0.253-0.0093-0.0387-0.0367-0.058-0.082-0.058s-0.073 0.0196-0.083 0.059c-0.01 0.0393-0.015 0.1203-0.015 0.243zm0.9951 0.398c-0.052 0-0.093-0.0154-0.123-0.046-0.0294-0.0314-0.044-0.0714-0.044-0.12 0-0.0494 0.016-0.0904 0.048-0.123 0.032-0.0327 0.0743-0.049 0.127-0.049 0.0533 0 0.0946 0.0143 0.124 0.043 0.03 0.0286 0.045 0.0696 0.045 0.123 0 0.0526-0.0164 0.0946-0.049 0.126-0.0327 0.0306-0.0754 0.046-0.128 0.046zm-0.038-0.28c-0.0027 0.016-0.0044 0.031-5e-3 0.045-7e-4 0.014-1e-3 0.0366-1e-3 0.068 0 0.0313 3e-4 0.0536 1e-3 0.067 6e-4 0.0133 0.0023 0.028 5e-3 0.044 0.0033 0.0153 0.0083 0.026 0.015 0.032 0.0073 0.0053 0.017 8e-3 0.029 8e-3s0.0213-3e-3 0.028-9e-3c0.0073-6e-3 0.0123-0.0174 0.015-0.034 4e-3 -0.0247 6e-3 -0.057 6e-3 -0.097s-4e-4 -0.067-1e-3 -0.081c-7e-4 -0.0147-0.0027-0.0297-6e-3 -0.045-0.0027-0.0154-0.0074-0.0257-0.014-0.031-0.0067-6e-3 -0.016-9e-3 -0.028-9e-3s-0.0217 3e-3 -0.029 9e-3c-0.0067 0.0053-0.0117 0.0163-0.015 0.033zm-0.374 0.27 0.421-0.7h0.04l-0.42 0.7h-0.041zm0.043-0.373c-0.052 0-0.093-0.0154-0.123-0.046-0.0294-0.0314-0.044-0.0714-0.044-0.12 0-0.0494 0.016-0.0904 0.048-0.123 0.032-0.0327 0.0743-0.049 0.127-0.049 0.0533 0 0.0946 0.0143 0.124 0.043 0.03 0.0286 0.045 0.0696 0.045 0.123 0 0.0526-0.0164 0.0946-0.049 0.126-0.0327 0.0306-0.0754 0.046-0.128 0.046zm-0.038-0.28c-0.0027 0.016-0.0044 0.031-5e-3 0.045-7e-4 0.014-1e-3 0.0366-1e-3 0.068 0 0.0313 3e-4 0.0536 1e-3 0.067 6e-4 0.0133 0.0023 0.028 5e-3 0.044 0.0033 0.0153 0.0083 0.026 0.015 0.032 0.0073 0.0053 0.017 8e-3 0.029 8e-3s0.0213-3e-3 0.028-9e-3c0.0073-6e-3 0.0123-0.0174 0.015-0.034 4e-3 -0.0254 6e-3 -0.0577 6e-3 -0.097 0-0.04-4e-4 -0.067-1e-3 -0.081-7e-4 -0.0147-0.0027-0.0297-6e-3 -0.045-0.0027-0.0154-0.0074-0.0257-0.014-0.031-0.0067-6e-3 -0.016-9e-3 -0.028-9e-3s-0.0217 3e-3 -0.029 9e-3c-0.0067 0.0053-0.0117 0.0163-0.015 0.033zm1.0612 0.663c-0.086 0-0.1506-0.022-0.194-0.066-0.0426-0.0447-0.064-0.1064-0.064-0.185 0-0.0794 0.024-0.14 0.072-0.182 0.0487-0.042 0.1104-0.063 0.185-0.063 0.1514 0 0.224 0.076 0.218 0.228h-0.282v0.039c0 0.0653 0.0084 0.1146 0.025 0.148 0.0167 0.0333 0.0457 0.05 0.087 0.05 0.0774 0 0.128-0.0414 0.152-0.124l0.018 3e-3c-0.0126 0.048-0.0356 0.0853-0.069 0.112-0.0326 0.0266-0.082 0.04-0.148 0.04zm-0.064-0.288h0.103v-0.049c0-0.054-0.0033-0.0907-0.01-0.11-6e-3 -0.02-0.0186-0.03-0.038-0.03-0.0186 0-0.0326 0.0106-0.042 0.032-0.0086 0.0206-0.013 0.0566-0.013 0.108v0.049zm0.5967-0.19c-0.0294 0-0.0504 0.016-0.063 0.048-0.0127 0.032-0.019 0.085-0.019 0.159v0.052c0 0.066 0.0073 0.1133 0.022 0.142 0.0146 0.0286 0.0416 0.043 0.081 0.043 0.0393 0 0.0706-0.0134 0.094-0.04 0.0233-0.0267 0.0383-0.057 0.045-0.091l0.018 2e-3c-0.0127 0.0573-0.036 0.0986-0.07 0.124-0.0347 0.026-0.0824 0.039-0.143 0.039-0.0774 0-0.1367-0.0207-0.178-0.062-0.0414-0.042-0.062-0.103-0.062-0.183 0-0.0807 0.0233-0.1427 0.07-0.186 0.0473-0.0434 0.113-0.065 0.197-0.065 0.0593 0 0.1046 0.0116 0.136 0.035 0.0313 0.0226 0.047 0.0513 0.047 0.086 0 0.0346-0.0077 0.06-0.023 0.076-0.0147 0.016-0.0354 0.024-0.062 0.024-0.026 0-0.047-7e-3 -0.063-0.021s-0.024-0.0347-0.024-0.062c0-0.012 0.0016-0.024 5e-3 -0.036h0.033c0.0046-0.0134 7e-3 -0.0254 7e-3 -0.036 0-0.032-0.016-0.048-0.048-0.048zm0.5264 0.271v-0.085c0-0.0647-0.0037-0.1117-0.011-0.141-0.0067-0.03-0.0227-0.045-0.048-0.045-0.0147 0-0.0267 0.0043-0.036 0.013-0.0087 8e-3 -0.015 0.0216-0.019 0.041-6e-3 0.03-9e-3 0.0756-9e-3 0.137v0.078c0 0.0726 2e-3 0.1163 6e-3 0.131 0.0046 0.0146 0.0093 0.0266 0.014 0.036 0.0073 0.016 0.0216 0.024 0.043 0.024 0.026 0 0.043-0.015 0.051-0.045 6e-3 -0.0214 9e-3 -0.0694 9e-3 -0.144zm-0.062 0.207c-0.0834 0-0.1464-0.0214-0.189-0.064-0.0427-0.0427-0.064-0.1037-0.064-0.183 0-0.08 0.0226-0.1414 0.068-0.184 0.046-0.0434 0.1103-0.065 0.193-0.065 0.0826 0 0.1443 0.02 0.185 0.06 0.0406 0.0393 0.061 0.0996 0.061 0.181 0 0.17-0.0847 0.255-0.254 0.255zm0.7646-0.766c-0.0253 0-0.042 0.0096-0.05 0.029-8e-3 0.0186-0.012 0.049-0.012 0.091v0.16h0.132v0.018h-0.132v0.44h0.122v0.018h-0.363v-0.018h0.055v-0.44h-0.058v-0.018h0.058v-4e-3c0-0.096 0.0183-0.1687 0.055-0.218 0.0367-0.05 0.098-0.075 0.184-0.075 0.0567 0 0.0973 0.0113 0.122 0.034 0.0247 0.022 0.037 0.0476 0.037 0.077 0 0.0293-0.0077 0.0513-0.023 0.066-0.0153 0.0146-0.0357 0.022-0.061 0.022s-0.045-0.0064-0.059-0.019c-0.0133-0.0134-0.02-0.0284-0.02-0.045 0-0.0174 2e-3 -0.034 6e-3 -0.05h0.038c0.0133-0.0454 3e-3 -0.068-0.031-0.068zm0.4138 0.308c-0.0246 0-0.0463 0.016-0.065 0.048-0.0186 0.032-0.028 0.07-0.028 0.114v0.268h0.071v0.018h-0.312v-0.018h0.055v-0.44h-0.055v-0.018h0.241v0.096c0.0087-0.034 0.0254-0.06 0.05-0.078 0.0247-0.0187 0.0527-0.028 0.084-0.028 0.0314 0 0.0567 9e-3 0.076 0.027 0.02 0.0173 0.03 0.0423 0.03 0.075 0 0.032-0.0073 0.0566-0.022 0.074-0.0146 0.0173-0.0373 0.026-0.068 0.026-0.03 0-0.0523-0.01-0.067-0.03-0.014-0.02-0.0156-0.0477-5e-3 -0.083h0.036c0.0167-0.034 0.0097-0.051-0.021-0.051zm0.3081-0.097c-0.0353 0-0.0606-9e-3 -0.076-0.027-0.0146-0.018-0.022-0.0404-0.022-0.067 0-0.0267 8e-3 -0.0487 0.024-0.066 0.0167-0.0174 0.0417-0.026 0.075-0.026 0.0334 0 0.0587 8e-3 0.076 0.024 0.0174 0.0153 0.026 0.0376 0.026 0.067 0 0.0286-0.0083 0.0516-0.025 0.069-0.0166 0.0173-0.0426 0.026-0.078 0.026zm-0.151 0.069h0.245v0.458h0.056v0.018h-0.297v-0.018h0.055v-0.44h-0.059v-0.018zm0.5844 0.486c-0.086 0-0.1506-0.022-0.194-0.066-0.0426-0.0447-0.064-0.1064-0.064-0.185 0-0.0794 0.024-0.14 0.072-0.182 0.0487-0.042 0.1104-0.063 0.185-0.063 0.1514 0 0.224 0.076 0.218 0.228h-0.282v0.039c0 0.0653 0.0084 0.1146 0.025 0.148 0.0167 0.0333 0.0457 0.05 0.087 0.05 0.0774 0 0.128-0.0414 0.152-0.124l0.018 3e-3c-0.0126 0.048-0.0356 0.0853-0.069 0.112-0.0326 0.0266-0.082 0.04-0.148 0.04zm-0.064-0.288h0.103v-0.049c0-0.054-0.0033-0.0907-0.01-0.11-6e-3 -0.02-0.0186-0.03-0.038-0.03-0.0186 0-0.0326 0.0106-0.042 0.032-0.0086 0.0206-0.013 0.0566-0.013 0.108v0.049zm0.3186-0.198h0.241v0.092c0.0107-0.0307 0.027-0.0554 0.049-0.074 0.022-0.0187 0.0554-0.028 0.1-0.028 0.1034 0 0.155 0.0556 0.155 0.167v0.301h0.056v0.018h-0.283v-0.018h0.041v-0.325c0-0.04-0.0026-0.0657-8e-3 -0.077-0.0053-0.012-0.015-0.018-0.029-0.018-0.0213 0-0.0403 0.014-0.057 0.042-0.016 0.028-0.024 0.062-0.024 0.102v0.276h0.043v0.018h-0.284v-0.018h0.055v-0.44h-0.055v-0.018zm0.8173 0.269c0 0.07 0.0036 0.1166 0.011 0.14 0.0073 0.0226 0.0206 0.034 0.04 0.034 0.02 0 0.037-0.0087 0.051-0.026 0.0146-0.0174 0.022-0.043 0.022-0.077v-0.218c0-0.0287-0.0057-0.053-0.017-0.073-0.0114-0.02-0.028-0.03-0.05-0.03s-0.037 0.0146-0.045 0.044c-8e-3 0.0293-0.012 0.0806-0.012 0.154v0.052zm0.137 0.207-0.011-0.07c-0.0227 0.0533-0.0687 0.08-0.138 0.08-0.0574 0-0.102-0.0207-0.134-0.062-0.0314-0.0414-0.047-0.103-0.047-0.185 0-0.166 0.066-0.249 0.198-0.249 0.0586 0 0.0973 0.0163 0.116 0.049v-0.295h-0.061v-0.018h0.25v0.732h0.049v0.018h-0.222zm0.2438-0.75h0.245v0.732h0.056v0.018h-0.297v-0.018h0.055v-0.714h-0.059v-0.018zm0.3008 0.292v-0.018h0.29v0.018h-0.054l0.109 0.332 0.116-0.332h-0.067v-0.018h0.141v0.018h-0.05l-0.187 0.539c-0.022 0.0626-0.0467 0.1063-0.074 0.131-0.0273 0.0253-0.0607 0.038-0.1 0.038s-0.0703-9e-3 -0.093-0.027-0.034-0.041-0.034-0.069 0.0073-0.0494 0.022-0.064c0.0147-0.0147 0.034-0.022 0.058-0.022 0.0553 0 0.083 0.023 0.083 0.069 0 0.01-2e-3 0.022-6e-3 0.036h-0.035c-0.0053 0.0153-6e-3 0.028-2e-3 0.038s0.013 0.015 0.027 0.015c0.0273 0 0.0517-0.0137 0.073-0.041 0.0213-0.0267 0.0417-0.0677 0.061-0.123l0.022-0.062h-0.088l-0.171-0.458h-0.041z" fill="url(#k)"/>
<path d="m13 58h22" stroke="url(#j)" stroke-linecap="round" stroke-width=".3"/>
<defs>
<filter id="n" x="10" y="1.0002" width="35" height="59" color-interpolation-filters="sRGB" filterUnits="userSpaceOnUse">
<feFlood flood-opacity="0" result="BackgroundImageFix"/>
<feBlend in="SourceGraphic" in2="BackgroundImageFix" result="shape"/>
<feColorMatrix in="SourceAlpha" result="hardAlpha" values="0 0 0 0 0 0 0 0 0 0 0 0 0 0 0 0 0 0 127 0"/>
<feOffset dx="8" dy="-2"/>
<feGaussianBlur stdDeviation="4.5"/>
<feComposite in2="hardAlpha" k2="-1" k3="1" operator="arithmetic"/>
<feColorMatrix values="0 0 0 0 0 0 0 0 0 0 0 0 0 0 0 0 0 0 0.25 0"/>
<feBlend in2="shape" result="effect1_innerShadow_102_123"/>
<feColorMatrix in="SourceAlpha" result="hardAlpha" values="0 0 0 0 0 0 0 0 0 0 0 0 0 0 0 0 0 0 127 0"/>
<feOffset dx="-2"/>
<feGaussianBlur stdDeviation="0.5"/>
<feComposite in2="hardAlpha" k2="-1" k3="1" operator="arithmetic"/>
<feColorMatrix values="0 0 0 0 0 0 0 0 0 0 0 0 0 0 0 0 0 0 0.25 0"/>
<feBlend in2="effect1_innerShadow_102_123" result="effect2_innerShadow_102_123"/>
</filter>
<linearGradient id="m" x1="35" x2="28" y1="33.5" y2="46.5" gradientUnits="userSpaceOnUse">
<stop stop-color="#785138" offset="0"/>
<stop stop-color="#A8704D" offset="1"/>
</linearGradient>
<linearGradient id="i" x1="29.5" x2="6" y1="15.5" y2="47.5" gradientUnits="userSpaceOnUse">
<stop stop-color="#633434" offset="0"/>
<stop stop-color="#232121" offset="1"/>
</linearGradient>
<linearGradient id="h" x1="16" x2="40" y1="23.5" y2="35.5" gradientUnits="userSpaceOnUse">
<stop stop-color="#DD9F43" stop-opacity=".49" offset="0"/>
<stop stop-color="#BD965C" stop-opacity=".26" offset="1"/>
</linearGradient>
<linearGradient id="g" x1="24" x2="24" y1="22" y2="29" gradientUnits="userSpaceOnUse">
<stop stop-color="#AD4D2F" stop-opacity=".24" offset="0"/>
<stop stop-color="#AE5D43" offset=".34706"/>
<stop stop-color="#B06F5A" stop-opacity="0" offset="1"/>
</linearGradient>
<linearGradient id="f" x1="36" x2="12" y1="30" y2="59" gradientUnits="userSpaceOnUse">
<stop stop-color="#4B4040" offset="0"/>
<stop stop-color="#2D2828" offset="1"/>
</linearGradient>
<linearGradient id="e" x1="35" x2="13" y1="33" y2="39" gradientUnits="userSpaceOnUse">
<stop stop-color="#fff" offset="0"/>
<stop stop-color="#9B9B9B" offset="1"/>
</linearGradient>
<linearGradient id="d" x1="35" x2="13" y1="54" y2="58" gradientUnits="userSpaceOnUse">
<stop stop-color="#fff" offset="0"/>
<stop stop-color="#9A9A9A" offset="1"/>
</linearGradient>
<linearGradient id="c" x1="35" x2="13" y1="33" y2="39" gradientUnits="userSpaceOnUse">
<stop stop-color="#fff" offset="0"/>
<stop stop-color="#9C9C9C" stop-opacity="0" offset="1"/>
</linearGradient>
<linearGradient id="b" x1="35" x2="13" y1="34" y2="38" gradientUnits="userSpaceOnUse">
<stop stop-color="#fff" offset="0"/>
<stop stop-color="#9C9C9C" offset="1"/>
</linearGradient>
<linearGradient id="a" x1="32.5" x2="16" y1="40" y2="48" gradientUnits="userSpaceOnUse">
<stop stop-color="#fff" offset="0"/>
<stop stop-color="#9A9A9A" offset="1"/>
</linearGradient>
<linearGradient id="l" x1="32" x2="16" y1="40" y2="48" gradientUnits="userSpaceOnUse">
<stop stop-color="#fff" offset="0"/>
<stop stop-color="#9C9C9C" offset="1"/>
</linearGradient>
<linearGradient id="k" x1="33" x2="14.5" y1="50" y2="53" gradientUnits="userSpaceOnUse">
<stop stop-color="#fff" offset="0"/>
<stop stop-color="#9B9B9B" offset="1"/>
</linearGradient>
<linearGradient id="j" x1="35" x2="13" y1="53" y2="58" gradientUnits="userSpaceOnUse">
<stop stop-color="#fff" offset="0"/>
<stop stop-color="#9A9A9A" offset="1"/>
</linearGradient>
</defs>
</svg>
