<?xml version="1.0" standalone="no"?>
<!DOCTYPE svg PUBLIC "-//W3C//DTD SVG 20010904//EN"
 "http://www.w3.org/TR/2001/REC-SVG-20010904/DTD/svg10.dtd">
<svg version="1.0" xmlns="http://www.w3.org/2000/svg"
 width="1024.000000pt" height="1024.000000pt" viewBox="0 0 1024.000000 1024.000000"
 preserveAspectRatio="xMidYMid meet">
<metadata>
Created by potrace 1.14, written by Peter Selinger 2001-2017
</metadata>
<g transform="translate(0.000000,1024.000000) scale(0.100000,-0.100000)"
fill="#000000" stroke="none">
<path d="M4958 9765 c-3 -3 -40 -7 -84 -10 -142 -8 -236 -33 -344 -93 -147
-80 -229 -162 -263 -259 -34 -98 6 -202 114 -296 55 -48 147 -102 221 -131 47
-17 47 -18 32 -42 -9 -13 -14 -24 -11 -24 3 0 -1 -17 -9 -37 -9 -20 -18 -44
-20 -52 -2 -9 -15 -50 -29 -91 -32 -90 -37 -105 -35 -105 0 0 -11 -31 -25 -70
-14 -38 -28 -77 -30 -85 -2 -8 -22 -69 -45 -135 -43 -128 -53 -179 -53 -290 0
-82 14 -256 27 -331 3 -17 8 -48 11 -70 3 -21 8 -52 11 -69 2 -16 6 -42 9 -57
2 -15 6 -35 9 -45 3 -10 8 -34 11 -53 3 -19 8 -46 10 -60 3 -14 7 -35 10 -48
2 -13 7 -32 10 -42 7 -23 15 -59 19 -85 2 -11 4 -20 5 -20 1 0 4 -11 6 -25 2
-14 16 -72 31 -130 26 -102 36 -229 21 -287 -25 -99 -137 -227 -249 -284 -24
-12 -45 -24 -48 -28 -3 -3 -9 -7 -15 -8 -5 -2 -51 -18 -100 -37 -50 -19 -102
-37 -116 -39 -13 -3 -48 -12 -78 -21 -29 -8 -57 -13 -62 -11 -4 3 -11 0 -14
-6 -4 -5 -13 -8 -20 -5 -7 2 -16 2 -19 -1 -3 -4 -16 -8 -28 -9 -38 -4 -91 -13
-122 -19 -15 -3 -47 -7 -70 -9 -88 -8 -186 -39 -251 -81 -47 -30 -132 -105
-120 -105 3 0 -3 -9 -13 -20 -18 -19 -73 -122 -78 -145 -1 -5 -9 -29 -18 -53
-8 -23 -15 -44 -16 -47 0 -3 0 -6 -1 -7 -8 -27 -27 -133 -34 -187 -4 -30 -8
-62 -10 -72 -2 -11 -7 -67 -10 -126 -4 -60 -9 -133 -11 -163 -6 -92 -15 -337
-18 -486 -2 -78 -6 -146 -9 -151 -3 -5 -2 -15 3 -23 4 -7 5 -23 0 -35 -5 -12
-4 -28 0 -35 5 -8 6 -19 3 -24 -10 -15 -10 -56 0 -56 4 0 5 -5 2 -11 -10 -16
-12 -69 -3 -75 4 -3 5 -13 0 -22 -9 -21 -9 -53 1 -69 4 -6 4 -14 -1 -17 -9 -5
-9 -47 1 -63 4 -7 4 -14 0 -16 -10 -6 -9 -89 0 -104 4 -7 4 -14 -1 -17 -9 -6
-8 -59 3 -75 3 -6 3 -11 -2 -11 -9 0 -10 -87 0 -96 3 -3 3 -16 -1 -28 -9 -27
-8 -58 1 -73 4 -6 4 -14 -1 -16 -4 -3 -6 -32 -4 -64 4 -73 4 -68 0 -130 -2
-29 1 -49 6 -46 5 4 6 1 2 -5 -10 -17 -14 -82 -4 -82 5 0 5 -8 0 -17 -9 -21
-8 -95 2 -112 4 -6 4 -11 -1 -11 -4 0 -7 -28 -5 -62 3 -80 3 -95 -1 -141 -1
-21 1 -41 5 -44 5 -2 5 -9 2 -15 -10 -16 -11 -69 -1 -75 4 -2 4 -9 1 -15 -9
-15 -9 -111 -1 -125 4 -7 4 -14 -1 -16 -4 -3 -6 -32 -4 -64 4 -73 4 -68 0
-130 -2 -29 1 -49 6 -46 5 4 6 1 2 -5 -10 -17 -14 -82 -4 -82 5 0 5 -8 0 -17
-9 -21 -8 -95 2 -112 4 -6 4 -11 -1 -11 -4 0 -7 -28 -5 -62 3 -80 3 -95 0
-140 -2 -20 0 -34 4 -32 5 3 4 -5 -1 -18 -5 -13 -5 -33 0 -46 5 -12 5 -22 1
-22 -4 0 -7 -22 -7 -49 0 -27 4 -47 9 -43 5 3 6 0 2 -6 -10 -17 -14 -82 -4
-82 5 0 5 -8 0 -17 -9 -21 -8 -95 2 -112 4 -6 4 -11 -1 -11 -4 0 -7 -28 -5
-62 3 -80 3 -95 0 -140 -2 -20 0 -34 4 -32 5 3 4 -5 -1 -18 -5 -13 -5 -33 0
-46 5 -12 5 -22 1 -22 -4 0 -7 -22 -7 -49 0 -27 4 -47 9 -43 5 3 6 0 2 -6 -10
-17 -14 -82 -4 -82 5 0 5 -8 0 -17 -9 -21 -8 -95 2 -112 4 -6 4 -11 -1 -11 -4
0 -7 -28 -5 -62 3 -80 3 -95 0 -140 -2 -20 1 -34 6 -31 5 4 6 1 2 -5 -10 -17
-14 -82 -4 -82 5 0 4 -8 -1 -18 -5 -10 -6 -24 -2 -30 10 -16 71 -34 71 -21 0
6 5 7 11 3 6 -3 54 -6 107 -5 105 1 101 1 197 1 36 0 72 0 80 0 8 0 44 0 80 0
36 0 72 0 80 0 8 0 44 0 80 0 73 0 104 0 191 0 34 -1 66 0 70 1 5 1 11 0 14
-1 16 -6 70 -4 70 3 0 5 5 5 11 2 13 -9 157 -10 165 -2 3 3 16 2 28 -3 13 -4
29 -4 36 0 8 5 18 6 23 3 11 -7 77 -10 77 -3 0 7 79 4 86 -3 3 -3 17 -2 30 3
14 6 26 6 29 0 3 -6 15 -6 30 0 15 6 25 6 25 0 0 -5 12 -5 30 0 17 5 30 5 30
0 0 -5 13 -5 30 0 17 5 30 5 30 0 0 -5 13 -5 30 0 17 5 30 5 30 0 0 -5 13 -5
30 0 17 5 30 5 30 1 0 -7 86 -5 107 3 7 3 15 1 18 -4 3 -6 15 -6 29 0 13 5 27
6 30 3 7 -7 105 -7 112 0 3 3 16 2 28 -3 13 -4 29 -4 36 0 8 5 18 6 23 3 12
-7 147 -9 147 -2 0 4 18 3 40 -1 22 -4 43 -4 46 1 2 4 15 4 28 -1 12 -4 29 -4
36 0 8 5 18 6 23 3 11 -7 147 -10 147 -3 0 7 89 4 96 -3 4 -3 17 -2 30 3 14 6
24 6 24 0 0 -5 12 -5 28 -1 15 5 37 5 49 0 13 -5 25 -4 28 1 3 6 15 6 30 0 15
-6 27 -6 30 0 3 6 15 6 30 0 15 -6 27 -6 30 0 4 6 13 7 24 1 9 -5 23 -6 31 -1
7 4 24 4 36 0 14 -6 26 -5 29 0 3 6 15 6 30 0 15 -6 27 -6 30 0 4 6 13 7 24 1
10 -6 23 -6 31 -1 8 5 21 5 30 0 9 -5 22 -5 30 0 7 4 24 4 36 0 14 -6 26 -5
29 0 3 6 15 6 30 0 15 -6 27 -6 30 0 3 6 15 6 30 0 15 -6 27 -6 30 1 4 5 13 6
22 0 9 -4 31 -5 49 -1 19 4 34 4 34 0 0 -5 14 -5 30 0 17 5 30 6 30 2 0 -6 56
-7 70 -2 3 1 10 1 15 0 24 -5 102 -3 111 3 6 3 15 3 21 -1 9 -6 140 -7 210 -3
24 2 43 31 33 50 -5 10 -7 21 -3 24 9 10 9 147 -1 147 -5 0 -4 6 0 12 5 7 8
54 7 103 -2 50 -3 99 -2 110 0 17 0 64 -1 118 0 6 0 53 0 102 0 50 0 97 0 105
0 8 1 26 3 40 2 14 -1 31 -6 38 -5 6 -6 12 -1 12 11 0 11 71 1 87 -4 7 -4 14
0 16 10 6 9 99 -1 115 -4 7 -3 12 1 12 10 0 10 61 -1 78 -4 7 -3 12 1 12 10 0
10 71 0 87 -4 6 -4 13 0 17 10 10 9 86 -1 86 -5 0 -5 5 0 13 5 6 8 35 7 62 -4
70 -4 84 -1 137 2 25 -1 44 -6 41 -5 -4 -6 -1 -2 5 10 17 14 82 4 82 -5 0 -5
8 0 18 9 20 8 94 -2 111 -4 6 -4 11 1 11 4 0 7 28 5 62 -3 73 -3 90 0 138 1
20 -1 41 -5 47 -4 6 -4 14 1 17 9 6 8 59 -3 75 -3 6 -3 11 2 11 10 0 9 112 0
128 -4 6 -4 13 1 15 4 3 6 32 4 64 -3 67 -3 54 0 163 1 47 -1 91 -5 97 -4 6
-4 14 1 17 9 6 8 59 -3 75 -3 6 -3 11 2 11 10 0 9 82 0 97 -4 7 -4 14 0 16 10
6 9 89 0 104 -4 7 -4 14 1 17 9 6 8 59 -3 75 -3 6 -3 11 2 11 10 0 9 82 0 97
-4 7 -4 14 1 17 9 6 8 59 -3 75 -3 6 -3 11 2 11 4 0 8 29 8 65 0 36 -4 65 -8
65 -5 0 -5 5 -2 11 10 16 12 69 3 75 -4 3 -4 14 2 24 7 13 7 21 0 25 -6 4 -7
11 -3 18 10 16 10 58 1 63 -5 3 -5 10 -2 16 11 17 10 117 0 111 -5 -4 -6 -1
-2 6 10 15 12 98 3 107 -3 4 -2 14 3 24 5 10 7 20 3 23 -3 3 -7 86 -9 184 -6
349 -30 752 -49 854 -2 9 -7 39 -11 66 -11 75 -18 107 -37 164 -46 136 -91
214 -159 280 -42 40 -159 104 -209 114 -43 9 -73 14 -114 20 -22 3 -56 8 -75
11 -19 3 -48 7 -65 10 -208 28 -494 125 -607 205 -72 51 -138 116 -138 137 0
6 -3 12 -7 12 -9 0 -40 71 -49 111 -12 49 -11 136 2 194 7 33 29 128 48 210
19 83 37 161 40 175 2 14 14 70 25 125 11 55 23 116 25 135 3 19 8 48 11 64 3
15 8 49 10 75 2 25 5 46 5 46 8 0 22 192 22 305 1 96 -7 140 -38 231 -14 41
-27 83 -30 94 -3 11 -9 29 -14 40 -5 11 -14 38 -20 60 -6 22 -15 49 -20 60 -5
11 -18 49 -30 85 -12 36 -24 72 -27 80 -4 8 -7 17 -7 20 -8 39 -72 210 -79
210 -5 0 -4 7 3 15 7 8 17 15 22 15 28 0 208 102 216 122 2 4 8 8 13 8 15 0
77 73 105 124 36 65 37 142 4 212 -13 27 -30 53 -37 57 -7 4 -13 15 -13 22 0
8 -4 15 -9 15 -5 0 -26 16 -47 36 -43 39 -178 124 -197 124 -7 0 -17 4 -23 8
-45 38 -254 64 -499 61 -113 -1 -156 1 -165 6 -4 3 -9 2 -12 0z"/>
</g>
</svg>
